<?xml version="1.0" encoding="UTF-8"?>
<svg width="30px" height="32px" viewBox="0 0 30 32" version="1.1" xmlns="http://www.w3.org/2000/svg" xmlns:xlink="http://www.w3.org/1999/xlink">
    <!-- Generator: Sketch 46.2 (44496) - http://www.bohemiancoding.com/sketch -->
    <title>ic_restaurant_black_24px</title>
    <desc>Created with Sketch.</desc>
    <defs>
        <path d="M11,9 L9,9 L9,2 L7,2 L7,9 L5,9 L5,2 L3,2 L3,9 C3,11.12 4.66,12.84 6.75,12.97 L6.75,22 L9.25,22 L9.25,12.97 C11.34,12.84 13,11.12 13,9 L13,2 L11,2 L11,9 Z M16,6 L16,14 L18.5,14 L18.5,22 L21,22 L21,2 C18.24,2 16,4.24 16,6 Z" id="path-1"></path>
        <filter x="-50.0%" y="-45.0%" width="200.0%" height="190.0%" filterUnits="objectBoundingBox" id="filter-2">
            <feMorphology radius="1" operator="dilate" in="SourceAlpha" result="shadowSpreadOuter1"></feMorphology>
            <feOffset dx="0" dy="0" in="shadowSpreadOuter1" result="shadowOffsetOuter1"></feOffset>
            <feGaussianBlur stdDeviation="2" in="shadowOffsetOuter1" result="shadowBlurOuter1"></feGaussianBlur>
            <feColorMatrix values="0 0 0 0 1   0 0 0 0 1   0 0 0 0 1  0 0 0 1 0" type="matrix" in="shadowBlurOuter1"></feColorMatrix>
        </filter>
    </defs>
    <g id="Page-1" stroke="none" stroke-width="1" fill="none" fill-rule="evenodd">
        <g id="ic_restaurant_black_24px" transform="translate(3.000000, 4.000000)">
            <g id="Shape" fill-rule="nonzero">
                <use fill="black" fill-opacity="1" filter="url(#filter-2)" xlink:href="#path-1"></use>
                <use fill="#D0021B" fill-rule="evenodd" xlink:href="#path-1"></use>
            </g>
            <polygon id="Shape" points="0 0 24 0 24 24 0 24"></polygon>
        </g>
    </g>
</svg>